<svg xmlns="http://www.w3.org/2000/svg" xmlns:xlink="http://www.w3.org/1999/xlink" width="375" viewBox="0 0 375 375" height="375" version="1.0"><defs><clipPath id="d"><path d="M 0.480469 0 L 300 0 L 300 375 L 0.480469 375 Z M 0.480469 0"/></clipPath><clipPath id="c"><path d="M0 0H300V375H0z"/></clipPath><filter x="0%" y="0%" width="100%" xmlns:xlink="http://www.w3.org/1999/xlink" xlink:type="simple" xlink:actuate="onLoad" height="100%" id="a" xlink:show="other"><feColorMatrix values="0 0 0 0 1 0 0 0 0 1 0 0 0 0 1 0 0 0 1 0" color-interpolation-filters="sRGB"/></filter><mask id="b"><g filter="url(#a)"><path fill-opacity=".749" d="M-37.5 -37.5H412.5V412.5H-37.5z"/></g></mask></defs><g mask="url(#b)"><g><g clip-path="url(#c)" transform="translate(30)"><g clip-path="url(#d)"><path transform="matrix(.75 0 0 .75 3.511 -151.43)" fill="none" d="M 91.30776 652.02529 C 112.682761 652.02529 127.437971 651.270082 135.578596 649.749248 C 143.823389 648.11904 149.031722 645.082581 151.203597 640.634664 C 153.479639 636.186747 154.620264 627.775288 154.620264 615.405496 L 154.620264 259.941931 L 122.71922 259.941931 C 100.911927 259.941931 84.30776 262.655473 72.917134 268.077348 C 61.630675 273.395057 53.224424 281.858599 47.687966 293.467975 C 42.156715 304.973184 36.240048 322.712768 29.948381 346.691937 L 13.344213 346.691937 L 13.344213 234.061721 L 377.927571 234.061721 L 377.927571 346.691937 L 361.323403 346.691937 C 355.141111 322.280477 349.224444 304.431517 343.583818 293.145058 C 338.052568 281.749224 329.693192 273.395057 318.521317 268.077348 C 307.453608 262.655473 291.06819 259.941931 269.365063 259.941931 L 236.000478 259.941931 L 236.000478 615.405496 C 236.000478 626.910705 237.521311 635.098206 240.55777 639.983623 C 243.703603 644.863831 249.40152 648.11904 257.646313 649.749248 C 265.891105 651.270082 280.000481 652.02529 299.964024 652.02529 L 299.964024 673.99925 L 91.30776 673.99925 Z M 91.30776 652.02529" stroke="#FCBA04" stroke-width="6.25"/></g></g></g></g></svg>