<svg xmlns="http://www.w3.org/2000/svg" xmlns:xlink="http://www.w3.org/1999/xlink" width="375" viewBox="0 0 375 375" height="375" version="1.0"><defs><clipPath id="d"><path d="M 0.480469 0 L 300 0 L 300 375 L 0.480469 375 Z M 0.480469 0"/></clipPath><clipPath id="c"><path d="M0 0H300V375H0z"/></clipPath><filter x="0%" y="0%" width="100%" xmlns:xlink="http://www.w3.org/1999/xlink" xlink:type="simple" xlink:actuate="onLoad" height="100%" id="a" xlink:show="other"><feColorMatrix values="0 0 0 0 1 0 0 0 0 1 0 0 0 0 1 0 0 0 1 0" color-interpolation-filters="sRGB"/></filter><mask id="b"><g filter="url(#a)"><path fill-opacity=".749" d="M-37.5 -37.5H412.5V412.5H-37.5z"/></g></mask></defs><g mask="url(#b)"><g><g clip-path="url(#c)" transform="translate(30)"><g clip-path="url(#d)"><path transform="matrix(.75 0 0 .75 3.511 -151.429)" fill="none" d="M 91.30776 652.025191 C 112.682761 652.025191 127.437971 651.269982 135.578596 649.749149 C 143.823389 648.118941 149.031722 645.082482 151.203597 640.634565 C 153.479639 636.186648 154.620264 627.775189 154.620264 615.405397 L 154.620264 259.941832 L 122.71922 259.941832 C 100.911927 259.941832 84.30776 262.655374 72.917134 268.077249 C 61.630675 273.394958 53.224424 281.8585 47.687966 293.467876 C 42.156715 304.973085 36.240048 322.712669 29.948381 346.691837 L 13.344213 346.691837 L 13.344213 234.061622 L 377.927571 234.061622 L 377.927571 346.691837 L 361.323403 346.691837 C 355.141111 322.280378 349.224444 304.431418 343.583818 293.144959 C 338.052568 281.749125 329.693192 273.394958 318.521317 268.077249 C 307.453608 262.655374 291.06819 259.941832 269.365063 259.941832 L 236.000478 259.941832 L 236.000478 615.405397 C 236.000478 626.910606 237.521311 635.098106 240.55777 639.983523 C 243.703603 644.863732 249.40152 648.118941 257.646313 649.749149 C 265.891105 651.269982 280.000481 652.025191 299.964024 652.025191 L 299.964024 673.999151 L 91.30776 673.999151 Z M 91.30776 652.025191" stroke="#17C3B2" stroke-width="6.25"/></g></g></g></g></svg>