<svg xmlns="http://www.w3.org/2000/svg" xmlns:xlink="http://www.w3.org/1999/xlink" width="375" viewBox="0 0 375 375" height="375" version="1.0"><defs><clipPath id="d"><path d="M 0.480469 0 L 300 0 L 300 375 L 0.480469 375 Z M 0.480469 0"/></clipPath><clipPath id="c"><path d="M0 0H300V375H0z"/></clipPath><filter x="0%" y="0%" width="100%" xmlns:xlink="http://www.w3.org/1999/xlink" xlink:type="simple" xlink:actuate="onLoad" height="100%" id="a" xlink:show="other"><feColorMatrix values="0 0 0 0 1 0 0 0 0 1 0 0 0 0 1 0 0 0 1 0" color-interpolation-filters="sRGB"/></filter><mask id="b"><g filter="url(#a)"><path fill-opacity=".749" d="M-37.5 -37.5H412.5V412.5H-37.5z"/></g></mask></defs><g mask="url(#b)"><g><g clip-path="url(#c)" transform="translate(30)"><g clip-path="url(#d)"><path transform="matrix(.75 0 0 .75 3.511 -151.429)" fill="none" d="M 91.30776 652.025172 C 112.682761 652.025172 127.437971 651.269963 135.578596 649.74913 C 143.823389 648.118921 149.031722 645.082463 151.203597 640.634546 C 153.479639 636.186629 154.620264 627.77517 154.620264 615.405378 L 154.620264 259.941813 L 122.71922 259.941813 C 100.911927 259.941813 84.30776 262.655354 72.917134 268.07723 C 61.630675 273.394938 53.224424 281.858481 47.687966 293.467856 C 42.156715 304.973066 36.240048 322.71265 29.948381 346.691818 L 13.344213 346.691818 L 13.344213 234.061603 L 377.927571 234.061603 L 377.927571 346.691818 L 361.323403 346.691818 C 355.141111 322.280358 349.224444 304.431399 343.583818 293.14494 C 338.052568 281.749106 329.693192 273.394938 318.521317 268.07723 C 307.453608 262.655354 291.06819 259.941813 269.365063 259.941813 L 236.000478 259.941813 L 236.000478 615.405378 C 236.000478 626.910587 237.521311 635.098087 240.55777 639.983504 C 243.703603 644.863713 249.40152 648.118921 257.646313 649.74913 C 265.891105 651.269963 280.000481 652.025172 299.964024 652.025172 L 299.964024 673.999131 L 91.30776 673.999131 Z M 91.30776 652.025172" stroke="#3D2645" stroke-width="6.25"/></g></g></g></g></svg>