<svg xmlns="http://www.w3.org/2000/svg" width="375" viewBox="0 0 375 375" height="375" version="1.0"><path transform="matrix(.75 0 0 .75 13.015 -151.43)" fill="none" d="M 387.365074 618.660705 C 392.682783 632.441955 398.432783 641.447164 404.620284 645.68154 C 410.911951 649.910707 422.250493 652.02529 438.635911 652.02529 L 438.635911 673.99925 L 258.625482 673.99925 L 258.625482 652.02529 L 288.734859 652.02529 C 294.917152 652.02529 299.531735 650.452373 302.568194 647.30654 C 305.714027 644.160706 307.286944 640.145081 307.286944 635.264872 C 307.286944 631.790914 306.635902 628.046122 305.333819 624.030497 L 266.599441 512.056531 L 130.693182 512.056531 L 93.260888 625.983622 C 91.958805 630.436747 91.307763 634.447164 91.307763 638.030497 C 91.307763 647.363831 97.328597 652.02529 109.375473 652.02529 L 141.927558 652.02529 L 141.927558 673.99925 L 3.255674 673.99925 L 3.255674 652.02529 C 20.61505 652.02529 32.604634 649.478415 39.224426 644.379456 C 45.953594 639.280498 51.974427 629.619039 57.292136 615.405496 L 195.96402 234.061721 L 252.59944 234.061721 Z M 259.276524 490.082571 L 198.729645 312.676309 L 196.615062 312.676309 L 138.021308 490.082571 Z M 259.276524 490.082571" stroke="#DA4167" stroke-width="6.25"/></svg>